<svg xmlns="http://www.w3.org/2000/svg" xmlns:xlink="http://www.w3.org/1999/xlink" width="200" zoomAndPan="magnify" viewBox="0 0 150 149.999998" height="200" preserveAspectRatio="xMidYMid meet" version="1.0"><defs><clipPath id="1c7ac43ef0"><path d="M 67.851562 66.226562 L 82.101562 66.226562 L 82.101562 83.476562 L 67.851562 83.476562 Z M 67.851562 66.226562 " clip-rule="nonzero"/></clipPath></defs><g clip-path="url(#1c7ac43ef0)"><path fill="#0097b2" d="M 74.992188 83.769531 L 74.871094 83.707031 C 73.175781 82.867188 71.722656 81.714844 70.511719 80.257812 L 70.433594 80.164062 C 68.769531 78.117188 67.855469 75.515625 67.855469 72.84375 L 67.855469 69.878906 L 68.117188 69.871094 C 69.421875 69.832031 70.660156 69.519531 71.824219 68.929688 C 72.992188 68.339844 73.976562 67.527344 74.78125 66.5 L 74.996094 66.226562 L 75.210938 66.5 C 76.015625 67.527344 77 68.335938 78.167969 68.925781 C 79.332031 69.515625 80.566406 69.828125 81.875 69.867188 L 82.136719 69.875 L 82.136719 72.84375 C 82.136719 75.515625 81.222656 78.113281 79.558594 80.160156 L 79.480469 80.253906 C 78.269531 81.714844 76.8125 82.867188 75.113281 83.707031 Z M 68.398438 70.402344 L 68.398438 72.84375 C 68.398438 75.394531 69.269531 77.867188 70.855469 79.820312 L 70.929688 79.910156 C 72.0625 81.273438 73.414062 82.355469 74.992188 83.160156 C 76.570312 82.355469 77.925781 81.273438 79.058594 79.910156 L 79.132812 79.820312 C 80.71875 77.867188 81.59375 75.390625 81.59375 72.84375 L 81.59375 70.402344 C 80.3125 70.328125 79.101562 70.003906 77.957031 69.429688 C 76.808594 68.855469 75.824219 68.078125 74.996094 67.101562 C 74.171875 68.082031 73.183594 68.855469 72.039062 69.429688 C 70.890625 70.003906 69.679688 70.328125 68.398438 70.402344 Z M 68.398438 70.402344 " fill-opacity="1" fill-rule="nonzero"/></g><path fill="#0097b2" d="M 74.992188 82.628906 L 74.929688 82.597656 C 73.527344 81.835938 72.3125 80.839844 71.292969 79.613281 L 71.222656 79.523438 C 69.703125 77.65625 68.867188 75.285156 68.867188 72.84375 L 68.867188 70.835938 L 68.984375 70.820312 C 70.203125 70.675781 71.355469 70.320312 72.441406 69.75 C 73.359375 69.261719 74.179688 68.644531 74.902344 67.898438 L 74.996094 67.804688 L 75.089844 67.898438 C 75.8125 68.644531 76.632812 69.261719 77.550781 69.746094 C 78.636719 70.316406 79.789062 70.675781 81.007812 70.816406 L 81.125 70.832031 L 81.125 72.84375 C 81.125 75.28125 80.289062 77.652344 78.769531 79.523438 L 78.699219 79.609375 C 77.703125 80.816406 76.441406 81.847656 75.054688 82.597656 Z M 69.128906 71.070312 L 69.128906 72.84375 C 69.128906 75.226562 69.945312 77.539062 71.421875 79.359375 C 71.445312 79.390625 71.46875 79.417969 71.492188 79.445312 C 72.476562 80.628906 73.644531 81.59375 74.992188 82.335938 C 76.324219 81.601562 77.535156 80.601562 78.496094 79.441406 C 78.523438 79.414062 78.542969 79.386719 78.566406 79.355469 C 80.046875 77.535156 80.863281 75.222656 80.863281 72.84375 L 80.863281 71.066406 C 79.652344 70.90625 78.507812 70.542969 77.425781 69.980469 C 76.527344 69.5 75.714844 68.902344 74.996094 68.179688 C 74.277344 68.902344 73.464844 69.503906 72.5625 69.980469 C 71.484375 70.546875 70.339844 70.910156 69.128906 71.070312 Z M 69.128906 71.070312 " fill-opacity="1" fill-rule="nonzero"/><path fill="#0097b2" d="M 73.945312 78.46875 L 70.679688 75.152344 L 72.3125 73.542969 L 73.96875 75.226562 L 77.699219 71.523438 L 79.308594 73.148438 Z M 71.449219 75.15625 L 73.949219 77.695312 L 78.539062 73.148438 L 77.695312 72.296875 L 73.960938 75.996094 L 72.304688 74.316406 Z M 71.449219 75.15625 " fill-opacity="1" fill-rule="nonzero"/></svg>
